<svg width="320" height="120" viewBox="0 0 320 120" fill="none" xmlns="http://www.w3.org/2000/svg">
<g clip-path="url(#clip0_2_102)">
<path d="M41.1648 57.4659V89H26.0369V16.2727H40.7386V44.0781H41.3778C42.6089 40.8584 44.5975 38.3371 47.3438 36.5142C50.09 34.6676 53.5346 33.7443 57.6776 33.7443C61.4654 33.7443 64.768 34.5729 67.5852 36.2301C70.4261 37.8636 72.6278 40.2192 74.1903 43.2969C75.7765 46.3509 76.5578 50.0085 76.5341 54.2699V89H61.4062V56.9688C61.4299 53.607 60.5777 50.991 58.8494 49.1207C57.1449 47.2505 54.7538 46.3153 51.6761 46.3153C49.6165 46.3153 47.7936 46.7533 46.2074 47.6293C44.6449 48.5052 43.4138 49.7836 42.5142 51.4645C41.6383 53.1217 41.1884 55.1222 41.1648 57.4659ZM103.993 90.0298C100.513 90.0298 97.4118 89.4261 94.6893 88.2188C91.9667 86.9877 89.8124 85.1766 88.2262 82.7855C86.6637 80.3707 85.8825 77.3641 85.8825 73.7656C85.8825 70.7353 86.4388 68.1903 87.5515 66.1307C88.6642 64.071 90.1793 62.4138 92.0969 61.1591C94.0146 59.9044 96.1926 58.9574 98.631 58.3182C101.093 57.679 103.674 57.2292 106.373 56.9688C109.545 56.6373 112.102 56.3295 114.043 56.0455C115.984 55.7377 117.393 55.2879 118.269 54.696C119.145 54.1042 119.583 53.2282 119.583 52.0682V51.8551C119.583 49.6061 118.873 47.866 117.452 46.6349C116.055 45.4039 114.067 44.7884 111.486 44.7884C108.764 44.7884 106.597 45.392 104.988 46.5994C103.378 47.7831 102.312 49.2746 101.792 51.0739L87.8001 49.9375C88.5103 46.6231 89.9071 43.7585 91.9904 41.3438C94.0737 38.9053 96.7608 37.035 100.051 35.733C103.366 34.4072 107.201 33.7443 111.557 33.7443C114.587 33.7443 117.488 34.0994 120.257 34.8097C123.051 35.5199 125.525 36.6207 127.679 38.1122C129.857 39.6037 131.574 41.5213 132.828 43.8651C134.083 46.1851 134.711 48.9669 134.711 52.2102V89H120.364V81.4361H119.938C119.062 83.1406 117.89 84.6439 116.422 85.946C114.954 87.2244 113.191 88.2306 111.131 88.9645C109.071 89.6747 106.692 90.0298 103.993 90.0298ZM108.326 79.5895C110.551 79.5895 112.516 79.1515 114.221 78.2756C115.925 77.3759 117.263 76.1686 118.233 74.6534C119.204 73.1383 119.689 71.4219 119.689 69.5043V63.7159C119.216 64.0237 118.565 64.3078 117.736 64.5682C116.931 64.8049 116.02 65.0298 115.002 65.2429C113.984 65.4323 112.966 65.6098 111.948 65.7756C110.93 65.9176 110.007 66.0478 109.178 66.1662C107.402 66.4266 105.852 66.8409 104.526 67.4091C103.2 67.9773 102.17 68.7467 101.436 69.7173C100.703 70.6643 100.336 71.848 100.336 73.2685C100.336 75.3281 101.081 76.9025 102.573 77.9915C104.088 79.0568 106.006 79.5895 108.326 79.5895ZM195.346 34.4545L176.277 89H159.231L140.162 34.4545H156.142L167.47 73.4815H168.038L179.331 34.4545H195.346ZM218.216 57.4659V89H203.088V34.4545H217.505V44.0781H218.145C219.352 40.9058 221.376 38.3963 224.217 36.5497C227.058 34.6795 230.502 33.7443 234.551 33.7443C238.339 33.7443 241.641 34.5729 244.458 36.2301C247.276 37.8873 249.466 40.2547 251.028 43.3324C252.591 46.3864 253.372 50.0322 253.372 54.2699V89H238.244V56.9688C238.268 53.6307 237.415 51.0265 235.687 49.1562C233.959 47.2623 231.58 46.3153 228.549 46.3153C226.513 46.3153 224.714 46.7533 223.152 47.6293C221.613 48.5052 220.405 49.7836 219.529 51.4645C218.677 53.1217 218.239 55.1222 218.216 57.4659Z" fill="#1A2332"/>
<path d="M258 12L266.66 17V27L258 32L249.34 27V17L258 12Z" fill="#1F7FB8"/>
</g>
<defs>
<clipPath id="clip0_2_102">
<rect width="320" height="120" fill="white"/>
</clipPath>
</defs>
</svg>
