<svg width="360" height="120" viewBox="0 0 360 120" fill="none" xmlns="http://www.w3.org/2000/svg">
<path d="M60.02 33.3401L70.4172 39.3431V51.3491L60.02 57.3521L49.6228 51.3491V39.3431L60.02 33.3401Z" stroke="#1A2332" stroke-width="1.8676" stroke-linejoin="round"/>
<path d="M47.347 56.0181L57.7442 62.0211V74.0271L47.347 80.0301L36.9498 74.0271V62.0211L47.347 56.0181Z" stroke="#1A2332" stroke-width="1.8676" stroke-linejoin="round"/>
<path d="M72.693 56.0181L83.0902 62.0211V74.0271L72.693 80.0301L62.2958 74.0271V62.0211L72.693 56.0181Z" fill="#1F7FB8" stroke="#1F7FB8" stroke-width="1.8676" stroke-linejoin="round"/>
<path d="M113.392 58.5568V80H103.105V30.5455H113.102V49.4531H113.537C114.374 47.2637 115.726 45.5492 117.594 44.3097C119.461 43.054 121.804 42.4261 124.621 42.4261C127.196 42.4261 129.442 42.9896 131.358 44.1165C133.29 45.2273 134.787 46.8291 135.849 48.9219C136.928 50.9986 137.459 53.4858 137.443 56.3835V80H127.156V58.2188C127.172 55.9328 126.593 54.1539 125.418 52.8821C124.259 51.6103 122.633 50.9744 120.54 50.9744C119.139 50.9744 117.9 51.2723 116.821 51.8679C115.759 52.4635 114.921 53.3329 114.31 54.4759C113.714 55.6027 113.408 56.9631 113.392 58.5568ZM156.115 80.7003C153.749 80.7003 151.64 80.2898 149.789 79.4688C147.937 78.6316 146.472 77.4001 145.394 75.7741C144.331 74.1321 143.8 72.0876 143.8 69.6406C143.8 67.58 144.178 65.8494 144.935 64.4489C145.692 63.0483 146.722 61.9214 148.026 61.0682C149.33 60.215 150.811 59.571 152.469 59.1364C154.143 58.7017 155.898 58.3958 157.733 58.2188C159.891 57.9934 161.629 57.7841 162.949 57.5909C164.269 57.3816 165.227 57.0758 165.823 56.6733C166.418 56.2708 166.716 55.6752 166.716 54.8864V54.7415C166.716 53.2121 166.233 52.0289 165.267 51.1918C164.318 50.3546 162.965 49.9361 161.211 49.9361C159.359 49.9361 157.886 50.3466 156.792 51.1676C155.697 51.9725 154.972 52.9867 154.618 54.2102L145.104 53.4375C145.587 51.1837 146.537 49.2358 147.953 47.5938C149.37 45.9356 151.197 44.6638 153.435 43.7784C155.689 42.8769 158.297 42.4261 161.259 42.4261C163.319 42.4261 165.292 42.6676 167.175 43.1506C169.075 43.6335 170.757 44.3821 172.222 45.3963C173.703 46.4105 174.87 47.7145 175.723 49.3082C176.577 50.8859 177.003 52.7775 177.003 54.983V80H167.248V74.8565H166.958C166.362 76.0156 165.565 77.0379 164.567 77.9233C163.569 78.7926 162.37 79.4768 160.969 79.9759C159.569 80.4588 157.951 80.7003 156.115 80.7003ZM159.061 73.6009C160.575 73.6009 161.911 73.303 163.07 72.7074C164.229 72.0956 165.139 71.2746 165.799 70.2443C166.459 69.214 166.789 68.0469 166.789 66.7429V62.8068C166.467 63.0161 166.024 63.2093 165.461 63.3864C164.913 63.5473 164.293 63.7003 163.601 63.8452C162.909 63.974 162.217 64.0947 161.525 64.2074C160.832 64.304 160.204 64.3925 159.641 64.473C158.434 64.6501 157.379 64.9318 156.478 65.3182C155.576 65.7045 154.876 66.2277 154.377 66.8878C153.878 67.5317 153.628 68.3366 153.628 69.3026C153.628 70.7031 154.135 71.7737 155.15 72.5142C156.18 73.2386 157.484 73.6009 159.061 73.6009ZM218.235 42.9091L205.268 80H193.677L180.71 42.9091H191.576L199.279 69.4474H199.666L207.345 42.9091H218.235ZM233.787 58.5568V80H223.5V42.9091H233.304V49.4531H233.738C234.559 47.2959 235.936 45.5895 237.868 44.3338C239.799 43.062 242.142 42.4261 244.895 42.4261C247.47 42.4261 249.716 42.9896 251.632 44.1165C253.547 45.2434 255.037 46.8532 256.099 48.946C257.162 51.0227 257.693 53.5019 257.693 56.3835V80H247.406V58.2188C247.422 55.9489 246.842 54.178 245.667 52.9062C244.492 51.6184 242.874 50.9744 240.814 50.9744C239.429 50.9744 238.206 51.2723 237.143 51.8679C236.097 52.4635 235.276 53.3329 234.68 54.4759C234.1 55.6027 233.803 56.9631 233.787 58.5568Z" fill="#1A2332"/>
</svg>
